<?xml version="1.0" encoding="UTF-8"?>
<svg id="Layer_1" xmlns="http://www.w3.org/2000/svg" xmlns:xlink="http://www.w3.org/1999/xlink" version="1.1" viewBox="0 0 4320 2592">
  <!-- Generator: Adobe Illustrator 29.0.1, SVG Export Plug-In . SVG Version: 2.1.0 Build 192)  -->
  <defs>
    <style>
      .st0 {
        fill: #2a0b45;
      }

      .st1 {
        fill: url(#linear-gradient);
      }

      .st2 {
        fill: #002aac;
      }

      .st3 {
        fill: #00ff9d;
      }

      .st4 {
        fill: #00a2ff;
      }
    </style>
    <linearGradient id="linear-gradient" x1="806.5" y1="1296" x2="1402.9" y2="1296" gradientUnits="userSpaceOnUse">
      <stop offset="0" stop-color="#002aac"/>
      <stop offset=".3" stop-color="#00a2ff"/>
      <stop offset=".6" stop-color="#00ff9d"/>
      <stop offset=".8" stop-color="#ffb400"/>
      <stop offset="1" stop-color="#ff0040"/>
    </linearGradient>
  </defs>
  <g>
    <polygon class="st0" points="1657.5 1429.9 1566.4 1158.6 1624.5 1158.6 1690.9 1367.2 1756.7 1158.6 1815.2 1158.6 1723.7 1429.9 1657.5 1429.9"/>
    <path class="st0" d="M1947,1236.1h50v193.8h-50v-22.9c-15,18.9-36,28.3-63.2,28.3s-48-9.9-66.5-29.6c-18.5-19.8-27.7-44-27.7-72.7s9.2-52.9,27.7-72.7c18.5-19.8,40.6-29.6,66.5-29.6s48.2,9.4,63.2,28.3v-22.9ZM1854.8,1372.3c10.1,10.2,22.9,15.3,38.4,15.3s28.3-5.1,38.6-15.3c10.2-10.2,15.3-23.3,15.3-39.3s-5.1-29.1-15.3-39.3c-10.2-10.2-23.1-15.3-38.6-15.3s-28.3,5.1-38.4,15.3c-10.1,10.2-15.1,23.3-15.1,39.3s5,29.1,15.1,39.3"/>
    <path class="st0" d="M2134.3,1230.7c21.2,0,38.7,7.1,52.5,21.3,13.8,14.2,20.7,33.9,20.7,58.9v119h-50v-112.8c0-12.9-3.5-22.8-10.5-29.6-7-6.9-16.3-10.3-27.9-10.3s-23.2,4-31,12c-7.8,8-11.6,20-11.6,36v104.6h-50v-193.8h50v21.7c12.2-18.1,31.4-27.1,57.7-27.1"/>
    <path class="st0" d="M2350.5,1284.2h-43.8v80.6c0,6.7,1.7,11.6,5,14.7,3.4,3.1,8.3,4.8,14.7,5.2,6.5.4,14.5.3,24-.2v45.4c-34.4,3.9-58.6.6-72.7-9.7-14.1-10.3-21.1-28.8-21.1-55.4v-80.6h-33.7v-48.1h33.7v-39.1l50-15.1v54.3h43.8v48.1Z"/>
    <path class="st0" d="M2521.9,1236.1h50v193.8h-50v-22.9c-15,18.9-36,28.3-63.2,28.3s-48-9.9-66.5-29.6c-18.5-19.8-27.7-44-27.7-72.7s9.2-52.9,27.7-72.7c18.5-19.8,40.6-29.6,66.5-29.6s48.2,9.4,63.2,28.3v-22.9ZM2429.7,1372.3c10.1,10.2,22.9,15.3,38.4,15.3s28.3-5.1,38.6-15.3c10.2-10.2,15.3-23.3,15.3-39.3s-5.1-29.1-15.3-39.3c-10.2-10.2-23.1-15.3-38.6-15.3s-28.3,5.1-38.4,15.3c-10.1,10.2-15.1,23.3-15.1,39.3s5,29.1,15.1,39.3"/>
  </g>
  <g>
    <polygon class="st0" points="2772.7 1158.6 2772.7 1209.8 2699.4 1209.8 2699.4 1429.9 2646 1429.9 2646 1209.8 2573.1 1209.8 2573.1 1158.6 2772.7 1158.6"/>
    <path class="st0" d="M2820.5,1269.5c4.7-12.4,12.3-21.7,23.1-27.9,10.7-6.2,22.7-9.3,35.8-9.3v55.8c-15.2-1.8-28.9,1.3-40.9,9.3-12,8-18,21.3-18,39.9v92.6h-50v-193.8h50v33.3Z"/>
    <path class="st0" d="M3048.4,1236.1h50v193.8h-50v-22.9c-15,18.9-36,28.3-63.2,28.3s-48-9.9-66.5-29.6c-18.5-19.8-27.7-44-27.7-72.7s9.2-52.9,27.7-72.7c18.5-19.8,40.6-29.6,66.5-29.6s48.2,9.4,63.2,28.3v-22.9ZM2956.2,1372.3c10.1,10.2,22.9,15.3,38.4,15.3s28.3-5.1,38.6-15.3c10.2-10.2,15.3-23.3,15.3-39.3s-5.1-29.1-15.3-39.3c-10.2-10.2-23.1-15.3-38.6-15.3s-28.3,5.1-38.4,15.3c-10.1,10.2-15.1,23.3-15.1,39.3s5,29.1,15.1,39.3"/>
    <path class="st0" d="M3225.4,1435.3c-29.2,0-53.6-9.8-73-29.5-19.5-19.6-29.3-43.9-29.3-72.9s9.7-53.2,29.3-72.9c19.5-19.6,43.8-29.5,73-29.5s36,4.5,51.5,13.6c15.5,9,27.2,21.2,35.3,36.4l-43,25.2c-3.9-8-9.8-14.3-17.6-19-7.9-4.6-16.7-7-26.6-7-15,0-27.4,5-37.2,14.9-9.8,9.9-14.7,22.7-14.7,38.2s4.9,27.8,14.7,37.8c9.8,9.9,22.2,14.9,37.2,14.9s19.1-2.3,26.9-6.8c7.9-4.5,13.8-10.8,17.6-18.8l43.4,24.8c-8.5,15.2-20.5,27.5-36,36.6-15.5,9.2-32.7,13.8-51.5,13.8"/>
    <polygon class="st0" points="3512.7 1429.9 3454.6 1429.9 3384.1 1341.9 3384.1 1429.9 3334.1 1429.9 3334.1 1158.6 3384.1 1158.6 3384.1 1321.7 3450.7 1236.1 3510.4 1236.1 3432.5 1331.9 3512.7 1429.9"/>
  </g>
  <path class="st1" d="M842.6,1296c0-144.8,117.4-262.1,262.1-262.1s262.1,117.4,262.1,262.1-117.4,262.1-262.1,262.1-262.1-117.4-262.1-262.1M806.5,1296c0,164.7,133.5,298.2,298.2,298.2s298.2-133.5,298.2-298.2-133.5-298.2-298.2-298.2-298.2,133.5-298.2,298.2"/>
  <path class="st2" d="M1104.7,1514.7c-.8,0-1.5-.6-1.5-1.4s.5-1.4,1.3-1.4h.2c1.8,0,3.5,0,5.3,0h0c.7,0,1.4.6,1.4,1.4,0,.8-.6,1.4-1.4,1.4-1.8,0-3.6,0-5.4,0M1090.6,1514.3h0c-1.9-.1-3.7-.3-5.6-.4-.8,0-1.3-.7-1.3-1.5,0-.8.7-1.3,1.5-1.3,1.8.2,3.7.3,5.5.4.8,0,1.4.7,1.3,1.5,0,.7-.7,1.3-1.4,1.3M1124,1513.9c-.7,0-1.3-.5-1.4-1.3,0-.8.5-1.5,1.3-1.5,1.8-.2,3.7-.3,5.5-.6.7,0,1.5.5,1.6,1.2,0,.8-.5,1.5-1.2,1.6-1.9.2-3.7.4-5.6.6h-.1M1071.2,1512.1c0,0-.1,0-.2,0-1.9-.3-3.7-.6-5.5-.9-.8-.1-1.3-.9-1.1-1.6.1-.8.9-1.3,1.6-1.1,1.8.3,3.6.6,5.5.9.8.1,1.3.8,1.2,1.6-.1.7-.7,1.2-1.4,1.2M1143.3,1511.3c-.7,0-1.3-.5-1.4-1.2-.1-.8.4-1.5,1.1-1.6,1.8-.3,3.6-.7,5.4-1,.7-.2,1.5.3,1.6,1.1.2.8-.3,1.5-1.1,1.7-1.8.4-3.7.7-5.5,1.1,0,0-.2,0-.2,0M1052.1,1508.3c-.1,0-.2,0-.3,0-1.8-.4-3.6-.9-5.4-1.4-.7-.2-1.2-1-1-1.7.2-.7,1-1.2,1.7-1,1.8.5,3.6,1,5.4,1.4.7.2,1.2,1,1,1.7-.2.6-.7,1.1-1.4,1.1M1162.3,1507c-.6,0-1.2-.4-1.3-1-.2-.7.2-1.5,1-1.7,1.8-.5,3.6-1,5.3-1.5.7-.2,1.5.2,1.7.9.2.7-.2,1.5-.9,1.8-1.8.5-3.6,1-5.4,1.6-.1,0-.2,0-.4,0M1033.4,1502.7c-.1,0-.3,0-.5,0-1.8-.6-3.5-1.3-5.3-1.9-.7-.3-1.1-1.1-.8-1.8.3-.7,1.1-1.1,1.8-.8,1.7.6,3.5,1.3,5.2,1.9.7.3,1.1,1.1.9,1.8-.2.6-.7.9-1.3.9M1180.9,1501c-.6,0-1.1-.3-1.3-.9-.3-.7,0-1.5.8-1.8,1.7-.7,3.5-1.3,5.2-2,.7-.3,1.5,0,1.8.8.3.7,0,1.5-.8,1.8-1.7.7-3.5,1.4-5.2,2-.2,0-.3,0-.5,0M1015.3,1495.5c-.2,0-.4,0-.6-.1-1.7-.8-3.4-1.6-5.1-2.4-.7-.3-1-1.2-.7-1.9.3-.7,1.2-1,1.9-.6,1.6.8,3.3,1.6,5,2.3.7.3,1,1.1.7,1.9-.2.5-.7.8-1.3.8M1198.8,1493.3c-.5,0-1-.3-1.3-.8-.3-.7,0-1.5.7-1.9,1.7-.8,3.3-1.6,5-2.5.7-.4,1.5,0,1.9.6.4.7,0,1.5-.6,1.9-1.7.9-3.4,1.7-5,2.5-.2,0-.4.1-.6.1M997.9,1486.7c-.2,0-.5,0-.7-.2-1.6-.9-3.2-1.9-4.8-2.8-.7-.4-.9-1.3-.5-1.9.4-.7,1.3-.9,1.9-.5,1.6,1,3.2,1.9,4.8,2.8.7.4.9,1.2.5,1.9-.3.5-.7.7-1.2.7M1216,1484.1c-.5,0-.9-.2-1.2-.7-.4-.7-.2-1.5.5-1.9,1.6-1,3.2-1.9,4.7-2.9.7-.4,1.5-.2,1.9.4.4.7.2,1.5-.4,1.9-1.6,1-3.2,2-4.8,2.9-.2.1-.5.2-.7.2M981.4,1476.4c-.3,0-.6,0-.8-.2-1.5-1.1-3.1-2.1-4.6-3.2-.6-.5-.8-1.3-.3-2,.4-.6,1.3-.8,1.9-.3,1.5,1.1,3,2.2,4.5,3.2.6.4.8,1.3.4,1.9-.3.4-.7.6-1.1.6M1232.3,1473.3c-.4,0-.9-.2-1.1-.6-.5-.6-.3-1.5.3-2,1.5-1.1,3-2.2,4.4-3.3.6-.5,1.5-.4,2,.3.5.6.4,1.5-.3,2-1.5,1.1-3,2.3-4.5,3.4-.2.2-.5.3-.8.3M965.9,1464.6c-.3,0-.6-.1-.9-.3-1.4-1.2-2.9-2.4-4.3-3.6-.6-.5-.6-1.4-.1-2,.5-.6,1.4-.6,2-.1,1.4,1.2,2.8,2.4,4.2,3.6.6.5.7,1.4.2,2-.3.3-.7.5-1.1.5M1247.6,1461.2c-.4,0-.8-.2-1.1-.5-.5-.6-.4-1.5.1-2,1.4-1.2,2.8-2.5,4.1-3.7.6-.5,1.5-.5,2,0,.5.6.5,1.5,0,2-1.4,1.3-2.8,2.5-4.2,3.7-.3.2-.6.3-.9.3M951.5,1451.5c-.4,0-.7-.1-1-.4-1.3-1.3-2.6-2.6-3.9-4-.5-.6-.5-1.4,0-2,.6-.5,1.4-.5,2,0,1.3,1.3,2.6,2.7,3.9,4,.5.5.5,1.4,0,2-.3.3-.6.4-1,.4M1261.7,1447.7c-.3,0-.7-.1-1-.4-.6-.5-.6-1.4,0-2,1.3-1.3,2.5-2.7,3.8-4,.5-.6,1.4-.6,2,0,.6.5.6,1.4,0,2-1.3,1.4-2.5,2.7-3.8,4.1-.3.3-.6.4-1,.4M938.3,1437.2c-.4,0-.8-.2-1.1-.5-1.2-1.4-2.4-2.9-3.6-4.3-.5-.6-.4-1.5.2-2,.6-.5,1.5-.4,2,.2,1.2,1.4,2.3,2.9,3.5,4.3.5.6.4,1.5-.2,2-.3.2-.6.3-.9.3M1274.5,1433c-.3,0-.6-.1-.9-.3-.6-.5-.7-1.4-.2-2,1.1-1.4,2.3-2.9,3.4-4.4.5-.6,1.4-.7,2-.3.6.5.7,1.3.3,2-1.1,1.5-2.3,3-3.4,4.4-.3.3-.7.5-1.1.5M926.4,1421.7c-.4,0-.9-.2-1.1-.6-1.1-1.5-2.1-3.1-3.2-4.6-.4-.6-.2-1.5.4-1.9.6-.4,1.5-.3,1.9.4,1,1.5,2.1,3.1,3.1,4.6.4.6.3,1.5-.3,1.9-.2.2-.5.3-.8.3M1286,1417.3c-.3,0-.5,0-.8-.2-.6-.4-.8-1.3-.4-1.9,1-1.5,2-3.1,3-4.6.4-.7,1.3-.9,1.9-.4.7.4.8,1.3.4,1.9-1,1.6-2,3.1-3,4.7-.3.4-.7.6-1.2.6M916,1405.2c-.5,0-1-.3-1.2-.7-.9-1.6-1.8-3.3-2.7-4.9-.4-.7-.1-1.5.6-1.9.7-.4,1.5-.1,1.9.6.9,1.6,1.8,3.2,2.7,4.8.4.7.2,1.5-.5,1.9-.2.1-.5.2-.7.2M1296,1400.6c-.2,0-.4,0-.7-.2-.7-.4-.9-1.2-.6-1.9.9-1.6,1.7-3.2,2.6-4.9.4-.7,1.2-1,1.9-.6.7.4,1,1.2.6,1.9-.8,1.7-1.7,3.3-2.6,5-.3.5-.7.7-1.2.7M907,1387.8c-.5,0-1-.3-1.3-.8-.8-1.7-1.5-3.4-2.3-5.1-.3-.7,0-1.5.7-1.8.7-.3,1.5,0,1.8.7.7,1.7,1.5,3.4,2.2,5.1.3.7,0,1.5-.7,1.9-.2,0-.4.1-.6.1M1304.5,1383.1c-.2,0-.4,0-.6-.1-.7-.3-1-1.1-.7-1.8.7-1.7,1.4-3.4,2.1-5.1.3-.7,1.1-1,1.8-.8.7.3,1.1,1.1.8,1.8-.7,1.7-1.4,3.4-2.1,5.2-.2.5-.7.8-1.3.8M899.7,1369.7c-.6,0-1.1-.4-1.3-.9-.6-1.8-1.2-3.5-1.8-5.3-.2-.7.2-1.5.9-1.8.7-.2,1.5.2,1.8.9.6,1.8,1.2,3.5,1.8,5.3.3.7-.1,1.5-.9,1.8-.1,0-.3,0-.5,0M1311.3,1364.9c-.1,0-.3,0-.4,0-.7-.2-1.1-1-.9-1.8.6-1.7,1.1-3.5,1.6-5.3.2-.7,1-1.1,1.7-.9.7.2,1.2,1,.9,1.8-.5,1.8-1.1,3.6-1.7,5.4-.2.6-.7,1-1.3,1M894.1,1351.1c-.6,0-1.2-.4-1.3-1-.5-1.8-.9-3.6-1.3-5.5-.2-.7.3-1.5,1.1-1.7.7-.2,1.5.3,1.7,1,.4,1.8.8,3.6,1.3,5.4.2.7-.3,1.5-1,1.7-.1,0-.2,0-.4,0M1316.5,1346.1c0,0-.2,0-.3,0-.7-.2-1.2-.9-1-1.7.4-1.8.8-3.6,1.2-5.4.2-.8.9-1.2,1.7-1.1.7.2,1.2.9,1.1,1.6-.4,1.8-.8,3.7-1.2,5.5-.1.7-.7,1.1-1.4,1.1M890.1,1332c-.7,0-1.3-.5-1.4-1.2-.3-1.8-.6-3.7-.8-5.5,0-.8.4-1.5,1.2-1.6.8-.1,1.5.4,1.6,1.2.2,1.8.5,3.7.8,5.5.1.8-.4,1.5-1.2,1.6,0,0-.1,0-.2,0M1320,1326.9c0,0-.1,0-.2,0-.8-.1-1.3-.8-1.2-1.6.2-1.8.5-3.7.7-5.5,0-.8.8-1.3,1.6-1.2.8,0,1.3.8,1.2,1.5-.2,1.9-.4,3.7-.7,5.6,0,.7-.7,1.2-1.4,1.2M887.9,1312.6c-.7,0-1.3-.6-1.4-1.3-.1-1.9-.2-3.7-.3-5.6,0-.8.6-1.4,1.3-1.5.8-.1,1.4.6,1.5,1.3,0,1.9.2,3.7.3,5.5,0,.8-.5,1.4-1.3,1.5h-.1M1321.8,1307.5h0c-.8,0-1.4-.7-1.3-1.5,0-1.8.1-3.7.2-5.5,0-.8.7-1.3,1.4-1.4.8,0,1.4.7,1.4,1.4,0,1.9,0,3.7-.2,5.6,0,.7-.7,1.3-1.4,1.3M887.4,1293.1h0c-.8,0-1.4-.7-1.4-1.4,0-1.9,0-3.7.2-5.6,0-.7.7-1.3,1.4-1.3h0c.8,0,1.4.7,1.3,1.5,0,1.8-.1,3.7-.2,5.5,0,.8-.6,1.4-1.4,1.4M1321.8,1288c-.7,0-1.4-.6-1.4-1.3,0-1.8-.2-3.7-.3-5.5,0-.8.5-1.4,1.3-1.5.8,0,1.4.5,1.5,1.3.1,1.9.2,3.7.3,5.6,0,.8-.6,1.4-1.3,1.5h0ZM888.7,1273.7h-.2c-.8,0-1.3-.8-1.2-1.6.2-1.9.4-3.7.7-5.6,0-.8.8-1.3,1.6-1.2.8.1,1.3.8,1.2,1.6-.2,1.8-.5,3.7-.7,5.5,0,.7-.7,1.2-1.4,1.2M1320.1,1268.6c-.7,0-1.3-.5-1.4-1.2-.2-1.8-.5-3.7-.8-5.5-.1-.8.4-1.5,1.2-1.6.7-.1,1.5.4,1.6,1.2.3,1.8.6,3.7.8,5.5.1.8-.4,1.5-1.2,1.6,0,0-.1,0-.2,0M891.6,1254.4c0,0-.2,0-.3,0-.7-.1-1.2-.9-1.1-1.6.4-1.8.8-3.7,1.2-5.5.2-.8.9-1.2,1.7-1.1.8.2,1.2.9,1.1,1.7-.4,1.8-.8,3.6-1.2,5.4-.1.7-.7,1.1-1.4,1.1M1316.7,1249.4c-.6,0-1.2-.4-1.4-1.1-.4-1.8-.8-3.6-1.3-5.4-.2-.7.3-1.5,1-1.7.8-.2,1.5.3,1.7,1,.4,1.8.9,3.6,1.3,5.4.2.7-.3,1.5-1,1.7-.1,0-.2,0-.3,0M896.3,1235.5c-.1,0-.3,0-.4,0-.7-.2-1.2-1-.9-1.7.5-1.8,1.1-3.6,1.7-5.4.2-.7,1-1.1,1.8-.9.7.2,1.1,1,.9,1.8-.6,1.8-1.1,3.5-1.6,5.3-.2.6-.7,1-1.3,1M1311.5,1230.6c-.6,0-1.1-.4-1.3-1-.6-1.8-1.2-3.5-1.8-5.3-.3-.7.1-1.5.9-1.8.7-.3,1.5.1,1.8.9.6,1.8,1.2,3.5,1.8,5.3.2.7-.2,1.5-.9,1.8-.1,0-.3,0-.4,0M902.7,1217.1c-.2,0-.3,0-.5,0-.7-.3-1.1-1.1-.8-1.8.7-1.7,1.4-3.5,2.1-5.2.3-.7,1.1-1,1.8-.7.7.3,1,1.1.7,1.8-.7,1.7-1.4,3.4-2.1,5.1-.2.5-.7.9-1.3.9M1304.7,1212.3c-.5,0-1.1-.3-1.3-.9-.7-1.7-1.5-3.4-2.2-5.1-.3-.7,0-1.5.7-1.9.7-.3,1.5,0,1.9.7.8,1.7,1.5,3.4,2.3,5.1.3.7,0,1.5-.7,1.8-.2,0-.4.1-.5.1M910.7,1199.3c-.2,0-.4,0-.6-.2-.7-.4-1-1.2-.6-1.9.8-1.7,1.7-3.3,2.6-5,.4-.7,1.2-.9,1.9-.6.7.4.9,1.2.6,1.9-.9,1.6-1.7,3.2-2.6,4.9-.2.5-.7.8-1.2.8M1296.3,1194.7c-.5,0-1-.3-1.2-.7-.9-1.6-1.8-3.2-2.7-4.8-.4-.7-.1-1.5.5-1.9.7-.4,1.5-.2,1.9.5.9,1.6,1.8,3.3,2.7,4.9.4.7.1,1.5-.6,1.9-.2.1-.4.2-.7.2M920.3,1182.4c-.3,0-.5,0-.7-.2-.7-.4-.9-1.3-.4-1.9,1-1.6,2-3.2,3-4.7.4-.7,1.3-.8,1.9-.4.6.4.8,1.3.4,1.9-1,1.5-2,3.1-3,4.6-.3.4-.7.7-1.2.7M1286.2,1177.9c-.4,0-.9-.2-1.2-.6-1-1.5-2.1-3.1-3.1-4.6-.4-.6-.3-1.5.3-2,.6-.4,1.5-.3,1.9.4,1.1,1.5,2.1,3.1,3.2,4.6.4.7.2,1.5-.4,1.9-.2.2-.5.2-.8.2M931.3,1166.3c-.3,0-.6,0-.8-.3-.6-.5-.7-1.3-.3-2,1.1-1.5,2.3-3,3.4-4.4.5-.6,1.4-.7,2-.2.6.5.7,1.4.2,2-1.2,1.4-2.3,2.9-3.4,4.4-.3.4-.7.6-1.1.6M1274.8,1162.1c-.4,0-.8-.2-1.1-.5-1.1-1.4-2.3-2.9-3.5-4.3-.5-.6-.4-1.5.2-2,.6-.5,1.5-.4,2,.2,1.2,1.4,2.4,2.9,3.6,4.3.5.6.4,1.5-.2,2-.3.2-.6.3-.9.3M943.8,1151.3c-.3,0-.7-.1-.9-.4-.6-.5-.6-1.4,0-2,1.3-1.4,2.5-2.8,3.8-4.1.5-.6,1.4-.6,2,0,.6.5.6,1.4,0,2-1.3,1.3-2.5,2.7-3.8,4-.3.3-.7.5-1,.5M1262,1147.4c-.4,0-.7-.1-1-.4-1.3-1.3-2.6-2.7-3.9-4-.5-.5-.5-1.4,0-2,.5-.5,1.4-.5,2,0,1.3,1.3,2.6,2.7,3.9,4,.5.6.5,1.4,0,2-.3.3-.6.4-1,.4M957.5,1137.5c-.4,0-.7-.1-1-.4-.5-.6-.5-1.5,0-2,1.4-1.3,2.8-2.5,4.2-3.7.6-.5,1.5-.4,2,.1.5.6.4,1.5-.1,2-1.4,1.2-2.8,2.5-4.1,3.7-.3.2-.6.4-1,.4M1247.9,1133.9c-.3,0-.7-.1-.9-.4-1.4-1.2-2.8-2.4-4.2-3.6-.6-.5-.7-1.4-.2-2,.5-.6,1.4-.7,2-.2,1.4,1.2,2.8,2.4,4.3,3.6.6.5.6,1.4.1,2-.3.3-.7.5-1.1.5M972.5,1124.9c-.4,0-.8-.2-1.1-.5-.5-.6-.4-1.5.3-2,1.5-1.1,3-2.3,4.5-3.4.6-.5,1.5-.3,2,.3.4.6.3,1.5-.3,1.9-1.5,1.1-3,2.2-4.4,3.3-.3.2-.6.3-.9.3M1232.7,1121.7c-.3,0-.6,0-.8-.3-1.5-1.1-3-2.2-4.5-3.2-.6-.4-.8-1.3-.4-1.9.4-.6,1.3-.8,1.9-.4,1.5,1.1,3.1,2.1,4.6,3.2.6.5.8,1.3.3,2-.3.4-.7.6-1.1.6M988.4,1113.8c-.5,0-.9-.2-1.2-.6-.4-.7-.2-1.5.4-1.9,1.6-1,3.2-2,4.8-2.9.7-.4,1.5-.2,1.9.5.4.7.2,1.5-.5,1.9-1.6,1-3.2,1.9-4.7,2.9-.2.2-.5.2-.7.2M1216.5,1111c-.2,0-.5,0-.7-.2-1.6-1-3.2-1.9-4.8-2.8-.7-.4-.9-1.2-.5-1.9.4-.7,1.2-.9,1.9-.5,1.6.9,3.2,1.9,4.8,2.8.7.4.9,1.3.5,1.9-.3.4-.7.7-1.2.7M1005.4,1104.1c-.5,0-1-.3-1.2-.8-.4-.7,0-1.5.6-1.9,1.7-.9,3.3-1.7,5-2.5.7-.3,1.5,0,1.9.7.3.7,0,1.5-.7,1.9-1.7.8-3.3,1.6-5,2.5-.2.1-.4.2-.6.2M1199.3,1101.7c-.2,0-.4,0-.6-.1-1.7-.8-3.3-1.6-5-2.3-.7-.3-1-1.2-.7-1.9.3-.7,1.1-1,1.9-.7,1.7.8,3.4,1.6,5.1,2.4.7.3,1,1.2.7,1.9-.2.5-.7.8-1.3.8M1023.1,1095.9c-.6,0-1.1-.3-1.3-.9-.3-.7,0-1.5.8-1.8,1.7-.7,3.5-1.4,5.2-2,.7-.3,1.5,0,1.8.8.3.7,0,1.5-.8,1.8-1.7.7-3.5,1.3-5.2,2-.2,0-.4,0-.5,0M1181.5,1094c-.2,0-.3,0-.5,0-1.7-.6-3.5-1.3-5.2-1.9-.7-.3-1.1-1-.9-1.8.3-.7,1.1-1.1,1.8-.9,1.8.6,3.5,1.3,5.3,1.9.7.3,1.1,1.1.8,1.8-.2.6-.7.9-1.3.9M1041.5,1089.4c-.6,0-1.2-.4-1.3-1-.2-.7.2-1.5.9-1.7,1.8-.5,3.6-1.1,5.4-1.6.7-.2,1.5.2,1.7,1s-.2,1.5-1,1.7c-1.8.5-3.6,1-5.3,1.5-.1,0-.3,0-.4,0M1162.9,1088c-.1,0-.2,0-.4,0-1.8-.5-3.6-1-5.4-1.4-.7-.2-1.2-1-1-1.7s.9-1.2,1.7-1c1.8.4,3.6.9,5.4,1.4.7.2,1.2,1,1,1.7-.2.6-.7,1-1.3,1M1060.4,1084.6c-.7,0-1.2-.5-1.4-1.1-.2-.7.3-1.5,1.1-1.6,1.8-.4,3.7-.7,5.5-1.1.7-.1,1.5.4,1.6,1.1.1.8-.4,1.5-1.1,1.6-1.8.3-3.6.7-5.4,1,0,0-.2,0-.3,0M1143.9,1083.6c0,0-.2,0-.3,0-1.8-.3-3.6-.6-5.5-.9-.8-.1-1.3-.8-1.2-1.6.1-.8.8-1.3,1.6-1.2,1.9.3,3.7.6,5.5.9.8.1,1.3.9,1.1,1.6-.1.7-.7,1.1-1.4,1.1M1079.7,1081.5c-.7,0-1.3-.5-1.4-1.2,0-.8.5-1.5,1.2-1.6,1.9-.2,3.7-.4,5.6-.6.7,0,1.4.5,1.5,1.3,0,.8-.5,1.4-1.3,1.5-1.8.2-3.7.4-5.5.6,0,0-.1,0-.2,0M1124.6,1081h-.1c-1.8-.2-3.7-.3-5.5-.4-.8,0-1.4-.7-1.3-1.5,0-.8.7-1.3,1.5-1.3,1.9.1,3.7.3,5.6.4.8,0,1.3.8,1.3,1.5,0,.7-.7,1.3-1.4,1.3M1099.1,1080.2c-.8,0-1.4-.6-1.4-1.4,0-.8.6-1.4,1.4-1.4,1.9,0,3.7,0,5.6,0h.4c.8,0,1.4.6,1.4,1.4s-.6,1.4-1.4,1.4h-.4c-1.9,0-3.7,0-5.5,0h0Z"/>
  <path class="st4" d="M1104.7,1478.2c-.8,0-1.5-.6-1.5-1.4s.5-1.4,1.3-1.4h.3c1.8,0,3.5,0,5.3,0,.8,0,1.4.6,1.4,1.4,0,.8-.6,1.4-1.4,1.4-1.8,0-3.6,0-5.4,0M1090.5,1477.6h-.1c-1.9-.1-3.7-.3-5.6-.5-.8,0-1.3-.8-1.2-1.6,0-.8.8-1.3,1.5-1.2,1.8.2,3.7.4,5.5.5.8,0,1.3.7,1.3,1.5,0,.7-.7,1.3-1.4,1.3M1124,1477.2c-.7,0-1.3-.5-1.4-1.3,0-.8.5-1.5,1.2-1.5,1.8-.2,3.7-.4,5.5-.7.7-.1,1.5.4,1.6,1.2.1.8-.4,1.5-1.2,1.6-1.9.3-3.7.5-5.6.7,0,0-.1,0-.1,0M1071.1,1475c0,0-.2,0-.3,0-1.9-.4-3.7-.7-5.5-1.1-.8-.2-1.2-.9-1.1-1.7.2-.7.9-1.2,1.7-1.1,1.8.4,3.6.8,5.4,1.1.8.1,1.3.9,1.1,1.6-.1.7-.7,1.1-1.4,1.1M1143.3,1474c-.6,0-1.2-.4-1.4-1.1-.2-.7.3-1.5,1.1-1.7,1.8-.4,3.6-.8,5.4-1.3.7-.2,1.5.3,1.7,1,.2.7-.3,1.5-1,1.7-1.8.4-3.7.9-5.5,1.3-.1,0-.2,0-.3,0M1052.1,1470.4c-.1,0-.3,0-.4,0-1.8-.5-3.6-1.1-5.4-1.7-.7-.2-1.1-1-.9-1.8.2-.7,1-1.1,1.8-.9,1.7.6,3.5,1.2,5.3,1.7.7.2,1.2,1,.9,1.7-.2.6-.7,1-1.3,1M1162.1,1468.8c-.6,0-1.1-.4-1.3-1-.2-.7.1-1.5.9-1.8,1.8-.6,3.5-1.2,5.3-1.8.7-.3,1.5.1,1.8.8.3.7,0,1.5-.8,1.8-1.8.7-3.6,1.3-5.3,1.9-.1,0-.3,0-.4,0M1033.7,1463.7c-.2,0-.4,0-.6-.1-1.7-.7-3.4-1.5-5.1-2.3-.7-.3-1-1.2-.7-1.9.3-.7,1.2-1,1.9-.7,1.7.8,3.4,1.5,5.1,2.2.7.3,1,1.1.7,1.8-.2.5-.7.8-1.3.8M1180.4,1461.6c-.5,0-1-.3-1.3-.8-.3-.7,0-1.5.7-1.9,1.7-.8,3.4-1.6,5-2.4.7-.4,1.5,0,1.9.6.3.7,0,1.5-.6,1.9-1.7.8-3.4,1.7-5.1,2.4-.2,0-.4.1-.6.1M1016.2,1455c-.2,0-.5,0-.7-.2-1.6-.9-3.3-1.9-4.9-2.8-.7-.4-.9-1.3-.5-1.9s1.3-.9,1.9-.5c1.6,1,3.2,1.9,4.8,2.8.7.4.9,1.2.5,1.9-.3.5-.7.7-1.2.7M1197.7,1452.5c-.5,0-.9-.2-1.2-.7-.4-.7-.2-1.5.5-1.9,1.6-1,3.2-1.9,4.7-2.9.6-.4,1.5-.2,1.9.4.4.7.2,1.5-.4,1.9-1.6,1-3.2,2-4.8,3-.2.1-.5.2-.7.2M999.7,1444.5c-.3,0-.6,0-.8-.3-1.5-1.1-3-2.2-4.5-3.4-.6-.5-.7-1.3-.3-2,.5-.6,1.3-.7,2-.3,1.5,1.1,3,2.2,4.5,3.3.6.4.8,1.3.3,2-.3.4-.7.6-1.1.6M1213.9,1441.5c-.4,0-.8-.2-1.1-.6-.5-.6-.3-1.5.3-2,1.5-1.1,2.9-2.3,4.4-3.4.6-.5,1.5-.4,2,.2.5.6.4,1.5-.2,2-1.5,1.2-2.9,2.3-4.4,3.5-.3.2-.6.3-.8.3M984.4,1432.3c-.3,0-.7-.1-.9-.4-1.4-1.3-2.8-2.5-4.2-3.8-.6-.5-.6-1.4,0-2,.5-.6,1.4-.6,2,0,1.3,1.3,2.7,2.5,4.1,3.7.6.5.6,1.4.1,2-.3.3-.7.5-1,.5M1228.8,1428.8c-.4,0-.7-.1-1-.4-.5-.6-.5-1.4,0-2,1.3-1.3,2.7-2.6,4-3.9.5-.6,1.4-.6,2,0,.6.5.6,1.4,0,2-1.3,1.3-2.7,2.6-4,3.9-.3.3-.6.4-1,.4M970.5,1418.5c-.4,0-.8-.2-1-.5-1.3-1.4-2.5-2.8-3.7-4.2-.5-.6-.4-1.5.2-2,.6-.5,1.5-.4,2,.2,1.2,1.4,2.4,2.8,3.7,4.2.5.6.5,1.5,0,2-.3.2-.6.4-.9.4M1242.3,1414.7c-.3,0-.6-.1-.9-.3-.6-.5-.7-1.4-.1-2,1.2-1.4,2.4-2.8,3.5-4.3.5-.6,1.4-.7,2-.2.6.5.7,1.4.2,2-1.2,1.5-2.4,2.9-3.6,4.3-.3.3-.7.5-1.1.5M958.2,1403.3c-.4,0-.9-.2-1.1-.6-1.1-1.5-2.2-3.1-3.2-4.6-.4-.6-.3-1.5.4-1.9.6-.4,1.5-.3,1.9.4,1,1.5,2.1,3.1,3.2,4.5.4.6.3,1.5-.3,1.9-.2.2-.5.3-.8.3M1254.2,1399.1c-.3,0-.5,0-.8-.2-.6-.4-.8-1.3-.4-1.9,1-1.5,2.1-3.1,3.1-4.6.4-.7,1.3-.8,1.9-.4.7.4.8,1.3.4,1.9-1,1.6-2,3.2-3.1,4.7-.3.4-.7.6-1.2.6M947.6,1386.9c-.5,0-1-.3-1.2-.7-.9-1.6-1.8-3.3-2.7-4.9-.4-.7-.1-1.5.6-1.9.7-.4,1.5,0,1.9.6.9,1.6,1.8,3.3,2.7,4.9.4.7.1,1.5-.5,1.9-.2.1-.4.2-.7.2M1264.3,1382.4c-.2,0-.4,0-.7-.2-.7-.4-.9-1.2-.6-1.9.9-1.6,1.7-3.3,2.5-4.9.3-.7,1.2-1,1.9-.6.7.3,1,1.2.6,1.9-.8,1.7-1.7,3.4-2.6,5-.2.5-.7.7-1.2.7M938.8,1369.4c-.5,0-1.1-.3-1.3-.8-.7-1.7-1.5-3.5-2.2-5.2-.3-.7,0-1.5.8-1.8.7-.3,1.5,0,1.8.8.7,1.7,1.4,3.4,2.1,5.1.3.7,0,1.5-.7,1.8-.2,0-.4.1-.6.1M1272.5,1364.7c-.2,0-.4,0-.5-.1-.7-.3-1.1-1.1-.8-1.8.7-1.7,1.3-3.4,2-5.2.3-.7,1.1-1.1,1.8-.8.7.3,1.1,1.1.8,1.8-.7,1.8-1.3,3.5-2,5.3-.2.5-.7.9-1.3.9M932,1351c-.6,0-1.2-.4-1.3-1-.6-1.8-1.1-3.6-1.6-5.4-.2-.7.2-1.5,1-1.7.7-.2,1.5.2,1.7,1,.5,1.8,1,3.6,1.6,5.3.2.7-.2,1.5-.9,1.8-.1,0-.3,0-.4,0M1278.8,1346.1c-.1,0-.2,0-.4,0-.7-.2-1.2-1-1-1.7.5-1.8,1-3.6,1.4-5.4.2-.8.9-1.2,1.7-1,.7.2,1.2.9,1,1.7-.4,1.8-.9,3.7-1.4,5.4-.2.6-.7,1-1.3,1M927.2,1332c-.7,0-1.2-.5-1.4-1.1-.4-1.9-.7-3.7-1-5.6-.1-.8.4-1.5,1.2-1.6.7-.1,1.5.4,1.6,1.2.3,1.8.6,3.7,1,5.5.1.8-.3,1.5-1.1,1.6,0,0-.2,0-.3,0M1283.1,1327c0,0-.2,0-.2,0-.8-.1-1.3-.8-1.2-1.6.3-1.8.6-3.6.8-5.5,0-.8.8-1.3,1.6-1.2.8,0,1.3.8,1.2,1.6-.2,1.9-.5,3.7-.8,5.6-.1.7-.7,1.2-1.4,1.2M924.6,1312.6c-.7,0-1.3-.6-1.4-1.3-.1-1.9-.3-3.7-.4-5.6,0-.8.5-1.4,1.3-1.5.8,0,1.4.6,1.5,1.3,0,1.9.2,3.7.4,5.5,0,.8-.5,1.4-1.3,1.5,0,0,0,0-.1,0M1285.2,1307.6h0c-.8,0-1.4-.7-1.3-1.5.1-1.8.2-3.7.2-5.5,0-.8.6-1.4,1.4-1.4h0c.8,0,1.4.7,1.4,1.4,0,1.9-.1,3.8-.2,5.6,0,.7-.7,1.3-1.4,1.3M924,1293.1h0c-.8,0-1.4-.7-1.4-1.4,0-1.9.1-3.8.2-5.6,0-.8.6-1.4,1.5-1.3.8,0,1.4.7,1.3,1.5,0,1.8-.2,3.7-.2,5.5,0,.8-.6,1.4-1.4,1.4M1285.2,1288c-.7,0-1.4-.6-1.4-1.3,0-1.9-.2-3.7-.4-5.5,0-.8.5-1.4,1.3-1.5.7,0,1.4.5,1.5,1.3.1,1.9.3,3.7.4,5.6,0,.8-.6,1.4-1.3,1.5,0,0,0,0,0,0M925.5,1273.6c0,0-.1,0-.2,0-.8-.1-1.3-.8-1.2-1.6.3-1.9.5-3.7.8-5.6.1-.8.9-1.3,1.6-1.2.8.1,1.3.8,1.2,1.6-.3,1.8-.6,3.7-.8,5.5,0,.7-.7,1.2-1.4,1.2M1283.2,1268.6c-.7,0-1.3-.5-1.4-1.2-.3-1.8-.6-3.7-1-5.5-.1-.8.4-1.5,1.1-1.6.7-.1,1.5.4,1.6,1.1.4,1.8.7,3.7,1,5.6.1.8-.4,1.5-1.2,1.6,0,0-.1,0-.2,0M929.1,1254.3c-.1,0-.2,0-.3,0-.7-.2-1.2-.9-1-1.7.4-1.8.9-3.7,1.4-5.4.2-.7,1-1.2,1.7-1,.7.2,1.2,1,1,1.7-.5,1.8-1,3.6-1.4,5.4-.2.6-.7,1.1-1.4,1.1M1279,1249.4c-.6,0-1.2-.4-1.3-1-.5-1.8-1-3.6-1.6-5.3-.2-.7.2-1.5.9-1.7.7-.2,1.5.2,1.7.9.6,1.8,1.1,3.6,1.6,5.4.2.7-.2,1.5-1,1.7-.1,0-.2,0-.4,0M934.8,1235.6c-.1,0-.3,0-.5,0-.7-.3-1.1-1.1-.8-1.8.7-1.8,1.3-3.5,2-5.3.3-.7,1.1-1.1,1.8-.8.7.3,1.1,1.1.8,1.8-.7,1.7-1.3,3.4-2,5.2-.2.6-.7.9-1.3.9M1272.8,1230.9c-.6,0-1.1-.3-1.3-.9-.7-1.7-1.4-3.4-2.1-5.1-.3-.7,0-1.5.7-1.8.7-.3,1.5,0,1.8.7.7,1.7,1.5,3.5,2.2,5.2.3.7,0,1.5-.8,1.8-.2,0-.3.1-.5.1M942.4,1217.6c-.2,0-.4,0-.6-.1-.7-.3-1-1.2-.6-1.9.8-1.7,1.7-3.4,2.6-5,.4-.7,1.2-.9,1.9-.6.7.4.9,1.2.6,1.9-.9,1.6-1.7,3.3-2.5,4.9-.2.5-.7.8-1.3.8M1264.6,1213.1c-.5,0-1-.3-1.2-.7-.9-1.6-1.8-3.3-2.7-4.9-.4-.7-.1-1.5.5-1.9.7-.4,1.5-.1,1.9.5.9,1.6,1.8,3.3,2.7,5,.4.7.1,1.5-.6,1.9-.2.1-.4.2-.7.2M952,1200.6c-.3,0-.5,0-.7-.2-.7-.4-.8-1.3-.4-1.9,1-1.6,2-3.1,3.1-4.7.4-.6,1.3-.8,1.9-.4.6.4.8,1.3.4,1.9-1,1.5-2.1,3.1-3.1,4.6-.3.4-.7.7-1.2.7M1254.6,1196.3c-.4,0-.9-.2-1.2-.6-1-1.5-2.1-3.1-3.2-4.6-.5-.6-.3-1.5.3-1.9.6-.4,1.5-.3,2,.3,1.1,1.5,2.2,3.1,3.2,4.6.4.6.3,1.5-.4,1.9-.2.2-.5.2-.8.2M963.4,1184.7c-.3,0-.6-.1-.9-.3-.6-.5-.7-1.4-.2-2,1.2-1.5,2.4-2.9,3.6-4.3.5-.6,1.4-.7,2-.2.6.5.7,1.4.2,2-1.2,1.4-2.4,2.8-3.5,4.3-.3.3-.7.5-1.1.5M1242.7,1180.7c-.4,0-.8-.2-1.1-.5-1.2-1.4-2.4-2.8-3.7-4.2-.5-.6-.5-1.5.1-2,.6-.5,1.5-.5,2,.1,1.3,1.4,2.5,2.8,3.7,4.2.5.6.4,1.5-.2,2-.3.2-.6.3-.9.3M976.4,1170.1c-.4,0-.7-.1-1-.4-.5-.5-.6-1.4,0-2,1.3-1.3,2.7-2.6,4-3.9.6-.5,1.4-.5,2,0,.5.6.5,1.4,0,2-1.3,1.3-2.7,2.6-4,3.9-.3.3-.6.4-1,.4M1229.3,1166.4c-.3,0-.7-.1-1-.4-1.3-1.3-2.7-2.5-4.1-3.8-.6-.5-.6-1.4-.1-2,.5-.6,1.4-.6,2-.1,1.4,1.3,2.8,2.5,4.1,3.8.6.5.6,1.4,0,2-.3.3-.6.4-1,.4M990.9,1156.9c-.4,0-.8-.2-1.1-.5-.5-.6-.4-1.5.2-2,1.5-1.2,2.9-2.4,4.4-3.5.6-.5,1.5-.4,2,.3.5.6.4,1.5-.3,2-1.5,1.1-2.9,2.3-4.4,3.4-.3.2-.6.3-.9.3M1214.4,1153.7c-.3,0-.6,0-.8-.3-1.5-1.1-3-2.2-4.5-3.3-.6-.4-.8-1.3-.3-2,.4-.6,1.3-.8,2-.3,1.5,1.1,3,2.2,4.5,3.4.6.5.7,1.3.3,2-.3.4-.7.5-1.1.5M1006.7,1145.4c-.4,0-.9-.2-1.2-.6-.4-.7-.2-1.5.4-1.9,1.6-1,3.2-2,4.8-3,.7-.4,1.5-.2,1.9.5.4.7.2,1.5-.5,1.9-1.6,1-3.2,1.9-4.7,2.9-.2.2-.5.2-.8.2M1198.3,1142.7c-.2,0-.5,0-.7-.2-1.6-1-3.2-1.9-4.8-2.8-.7-.4-.9-1.2-.5-1.9.4-.7,1.2-.9,1.9-.5,1.6.9,3.3,1.9,4.9,2.8.7.4.9,1.3.5,1.9-.3.4-.7.7-1.2.7M1023.7,1135.7c-.5,0-1-.3-1.3-.8-.3-.7,0-1.5.6-1.9,1.7-.8,3.4-1.7,5.1-2.5.7-.3,1.5,0,1.9.7.3.7,0,1.5-.7,1.9-1.7.8-3.4,1.6-5,2.4-.2,0-.4.1-.6.1M1181.1,1133.5c-.2,0-.4,0-.6-.1-1.7-.8-3.4-1.5-5-2.3-.7-.3-1-1.1-.7-1.8.3-.7,1.1-1,1.8-.7,1.7.7,3.4,1.5,5.1,2.3.7.3,1,1.2.7,1.9-.2.5-.7.8-1.3.8M1041.7,1127.9c-.6,0-1.1-.3-1.3-.9-.3-.7,0-1.5.8-1.8,1.8-.7,3.5-1.3,5.3-1.9.7-.3,1.5.1,1.8.9.2.7-.1,1.5-.9,1.8-1.8.6-3.5,1.2-5.2,1.9-.2,0-.3,0-.5,0M1162.9,1126.2c-.1,0-.3,0-.4,0-1.8-.6-3.5-1.2-5.3-1.7-.7-.2-1.2-1-.9-1.8.2-.7,1-1.2,1.7-.9,1.8.5,3.6,1.1,5.4,1.7.7.2,1.1,1,.9,1.8-.2.6-.7,1-1.3,1M1060.4,1122.1c-.6,0-1.2-.4-1.4-1-.2-.8.3-1.5,1-1.7,1.8-.5,3.7-.9,5.5-1.3.7-.2,1.5.3,1.7,1.1.2.8-.3,1.5-1.1,1.7-1.8.4-3.6.8-5.4,1.3-.1,0-.2,0-.3,0M1144.1,1120.9c0,0-.2,0-.3,0-1.8-.4-3.6-.8-5.4-1.1-.8-.1-1.3-.9-1.1-1.6.1-.8.9-1.3,1.6-1.1,1.9.4,3.7.7,5.5,1.1.8.2,1.2.9,1.1,1.7-.1.7-.7,1.1-1.4,1.1M1079.6,1118.4c-.7,0-1.3-.5-1.4-1.2-.1-.8.4-1.5,1.2-1.6,1.9-.3,3.7-.5,5.6-.7.7,0,1.5.5,1.5,1.2,0,.8-.5,1.5-1.2,1.5-1.8.2-3.7.4-5.5.7,0,0-.1,0-.2,0M1124.8,1117.7s0,0-.1,0c-1.8-.2-3.7-.4-5.5-.5-.8,0-1.3-.7-1.3-1.5,0-.8.8-1.3,1.5-1.3,1.9.1,3.8.3,5.6.5.8,0,1.3.8,1.2,1.6,0,.7-.7,1.2-1.4,1.2M1099.1,1116.7c-.8,0-1.4-.6-1.4-1.4,0-.8.6-1.4,1.4-1.4,1.9,0,3.7,0,5.6,0h.6c.8,0,1.4.6,1.4,1.4s-.6,1.4-1.4,1.4h-.6c-1.8,0-3.7,0-5.5,0h0Z"/>
  <path class="st4" d="M1100.2,1432.1h0c-1.9,0-3.8-.2-5.7-.3-.8,0-1.3-.7-1.3-1.5,0-.8.7-1.3,1.5-1.3,1.8.1,3.7.2,5.6.3.8,0,1.4.7,1.4,1.4,0,.8-.7,1.4-1.4,1.4M1114.3,1431.8c-.7,0-1.3-.6-1.4-1.3,0-.8.5-1.4,1.3-1.5,1.9-.1,3.7-.3,5.5-.5.7-.1,1.5.5,1.6,1.2,0,.8-.5,1.5-1.2,1.6-1.9.2-3.8.4-5.7.5h-.1M1080.7,1430c0,0-.2,0-.3,0-1.9-.3-3.7-.7-5.6-1.1-.7-.2-1.2-.9-1.1-1.7.2-.8.9-1.2,1.7-1.1,1.8.4,3.6.8,5.4,1.1.8.1,1.3.9,1.1,1.6-.1.7-.7,1.2-1.4,1.2M1133.7,1429c-.6,0-1.2-.4-1.4-1.1-.2-.8.3-1.5,1.1-1.7,1.8-.4,3.6-.8,5.4-1.3.7-.2,1.5.3,1.7,1,.2.7-.2,1.5-1,1.7-1.8.5-3.7.9-5.5,1.3,0,0-.2,0-.3,0M1061.6,1425.1c-.1,0-.3,0-.4,0-1.8-.6-3.6-1.2-5.3-1.9-.7-.3-1.1-1.1-.8-1.8.3-.7,1.1-1.1,1.8-.8,1.7.7,3.5,1.3,5.2,1.9.7.2,1.1,1,.9,1.8-.2.6-.7,1-1.3,1M1152.6,1423.4c-.6,0-1.1-.3-1.3-.9-.3-.7,0-1.5.8-1.8,1.7-.7,3.5-1.4,5.2-2.1.7-.3,1.5,0,1.8.7.3.7,0,1.5-.7,1.8-1.7.7-3.5,1.5-5.3,2.1-.2,0-.3,0-.5,0M1043.5,1417.5c-.2,0-.4,0-.6-.1-1.7-.9-3.4-1.8-5-2.7-.7-.4-.9-1.2-.5-1.9.4-.7,1.2-.9,1.9-.5,1.6.9,3.2,1.8,4.9,2.6.7.3,1,1.2.6,1.9-.2.5-.7.8-1.2.8M1170.4,1415.1c-.5,0-1-.3-1.2-.7-.4-.7-.1-1.5.5-1.9,1.6-.9,3.2-1.9,4.8-2.8.7-.4,1.5-.2,1.9.5.4.7.2,1.5-.5,1.9-1.6,1-3.3,1.9-4.9,2.9-.2.1-.4.2-.7.2M1026.7,1407.3c-.3,0-.6,0-.8-.3-1.5-1.1-3.1-2.2-4.5-3.4-.6-.5-.7-1.3-.3-2,.5-.6,1.4-.7,2-.2,1.5,1.1,3,2.2,4.5,3.3.6.4.8,1.3.3,1.9-.3.4-.7.6-1.1.6M1186.8,1404.2c-.4,0-.8-.2-1.1-.5-.5-.6-.4-1.5.3-2,1.5-1.1,2.9-2.3,4.3-3.5.6-.5,1.5-.4,2,.2.5.6.4,1.5-.2,2-1.5,1.2-2.9,2.4-4.4,3.6-.3.2-.6.3-.9.3M1011.6,1394.8c-.3,0-.7-.1-1-.4-1.4-1.3-2.7-2.7-4-4-.5-.6-.5-1.4,0-2,.5-.5,1.4-.5,2,0,1.3,1.3,2.6,2.7,3.9,3.9.6.5.6,1.4,0,2-.3.3-.6.4-1,.4M1201.5,1391.1c-.4,0-.7-.1-1-.4-.6-.5-.6-1.4,0-2,1.3-1.3,2.6-2.7,3.8-4.1.5-.6,1.4-.6,2-.1.6.5.6,1.4.1,2-1.3,1.4-2.6,2.8-3.9,4.2-.3.3-.6.4-1,.4M998.4,1380.2c-.4,0-.8-.2-1.1-.5-1.2-1.5-2.3-3-3.4-4.5-.4-.6-.3-1.5.3-1.9.6-.5,1.5-.3,1.9.3,1.1,1.5,2.2,3,3.3,4.5.5.6.4,1.5-.2,2-.3.2-.6.3-.9.3M1214.1,1376.1c-.3,0-.6,0-.8-.3-.6-.4-.8-1.3-.3-2,1.1-1.5,2.1-3,3.2-4.6.4-.6,1.3-.8,1.9-.4.6.4.8,1.3.4,1.9-1,1.6-2.1,3.1-3.2,4.7-.3.4-.7.6-1.1.6M987.5,1363.8c-.5,0-1-.3-1.2-.7-.9-1.6-1.8-3.3-2.7-5-.4-.7,0-1.5.6-1.9.7-.4,1.5,0,1.9.6.8,1.6,1.7,3.3,2.6,4.9.4.7.1,1.5-.5,1.9-.2.1-.4.2-.7.2M1224.4,1359.3c-.2,0-.4,0-.6-.2-.7-.4-1-1.2-.6-1.9.8-1.6,1.7-3.3,2.5-5,.3-.7,1.2-1,1.9-.7.7.3,1,1.2.7,1.9-.8,1.7-1.6,3.4-2.5,5.1-.2.5-.7.8-1.2.8M979,1346.1c-.6,0-1.1-.3-1.3-.9-.7-1.8-1.3-3.6-1.9-5.4-.2-.7.1-1.5.9-1.8.7-.2,1.5.1,1.8.9.6,1.8,1.2,3.5,1.9,5.2.3.7,0,1.5-.8,1.8-.2,0-.3,0-.5,0M1232.1,1341.3c-.1,0-.3,0-.5,0-.7-.3-1.1-1-.9-1.8.6-1.8,1.2-3.5,1.7-5.3.2-.7,1-1.1,1.7-.9.7.2,1.2,1,.9,1.7-.5,1.8-1.1,3.6-1.7,5.4-.2.6-.7,1-1.3,1M973.3,1327.2c-.6,0-1.2-.5-1.4-1.1-.4-1.9-.8-3.7-1.1-5.6-.1-.8.4-1.5,1.1-1.6.7-.1,1.5.4,1.6,1.1.3,1.8.7,3.6,1.1,5.4.2.7-.3,1.5-1.1,1.7,0,0-.2,0-.3,0M1237.2,1322.3c0,0-.2,0-.3,0-.8-.1-1.3-.9-1.1-1.6.3-1.8.6-3.6.9-5.5.1-.8.8-1.3,1.6-1.2.8.1,1.3.8,1.2,1.6-.3,1.9-.6,3.7-.9,5.6-.1.7-.7,1.1-1.4,1.1M970.4,1307.8c-.7,0-1.3-.6-1.4-1.3-.1-1.9-.2-3.8-.3-5.7,0-.8.6-1.4,1.3-1.4.7,0,1.4.6,1.5,1.3,0,1.9.2,3.7.3,5.6,0,.8-.5,1.4-1.3,1.5h-.1M1239.3,1302.7h0c-.8,0-1.4-.7-1.3-1.5,0-1.7.1-3.5.1-5.3v-.3c0-.8.6-1.4,1.4-1.4s1.4.6,1.4,1.4v.3c0,1.8,0,3.6,0,5.4,0,.7-.7,1.3-1.4,1.3M970.3,1288.1h-.1c-.8,0-1.3-.7-1.3-1.5.1-1.9.3-3.8.5-5.7,0-.8.8-1.3,1.5-1.2s1.3.8,1.2,1.6c-.2,1.8-.4,3.7-.5,5.5,0,.7-.7,1.3-1.4,1.3M1238.7,1283.1c-.7,0-1.3-.5-1.4-1.3-.2-1.9-.4-3.7-.7-5.5-.1-.8.4-1.5,1.2-1.6.8-.1,1.5.4,1.6,1.2.3,1.9.5,3.7.7,5.6,0,.8-.5,1.5-1.2,1.5,0,0,0,0-.1,0M973,1268.7c0,0-.2,0-.3,0-.8-.2-1.2-.9-1.1-1.7.4-1.9.8-3.7,1.3-5.5.2-.7.9-1.2,1.7-1,.7.2,1.2,1,1,1.7-.5,1.8-.9,3.6-1.3,5.4-.1.7-.7,1.1-1.4,1.1M1235.2,1263.7c-.6,0-1.2-.4-1.3-1.1-.5-1.8-1-3.6-1.5-5.4-.2-.7.2-1.5.9-1.7.8-.2,1.5.2,1.8.9.5,1.8,1.1,3.6,1.5,5.5.2.7-.3,1.5-1,1.7-.1,0-.2,0-.4,0M978.6,1249.8c-.2,0-.3,0-.5,0-.7-.3-1.1-1.1-.8-1.8.7-1.8,1.4-3.5,2.1-5.3.3-.7,1.1-1,1.8-.7.7.3,1,1.1.7,1.8-.7,1.7-1.4,3.4-2.1,5.1-.2.6-.7.9-1.3.9M1228.9,1245.1c-.5,0-1.1-.3-1.3-.9-.7-1.7-1.5-3.4-2.3-5.1-.3-.7,0-1.5.7-1.9.7-.3,1.5,0,1.9.7.8,1.7,1.6,3.4,2.3,5.2.3.7,0,1.5-.7,1.8-.2,0-.4.1-.5.1M986.9,1232c-.2,0-.5,0-.7-.2-.7-.4-.9-1.2-.5-1.9.9-1.6,1.9-3.3,2.9-4.9.4-.7,1.3-.9,1.9-.5.7.4.9,1.3.5,1.9-1,1.6-1.9,3.2-2.8,4.8-.3.5-.7.7-1.2.7M1220,1227.6c-.5,0-.9-.2-1.2-.7-1-1.6-2-3.2-3-4.7-.4-.7-.3-1.5.4-1.9.7-.4,1.5-.3,1.9.4,1.1,1.6,2.1,3.2,3.1,4.8.4.7.2,1.5-.5,1.9-.2.1-.5.2-.7.2M997.6,1215.6c-.3,0-.6,0-.9-.3-.6-.5-.7-1.3-.3-2,1.2-1.5,2.3-3,3.5-4.4.5-.6,1.4-.7,2-.2.6.5.7,1.4.2,2-1.2,1.4-2.3,2.9-3.5,4.3-.3.4-.7.5-1.1.5M1208.5,1211.5c-.4,0-.8-.2-1.1-.5-1.2-1.4-2.4-2.8-3.6-4.2-.5-.6-.5-1.5,0-2,.6-.5,1.5-.5,2,.1,1.3,1.4,2.5,2.8,3.7,4.3.5.6.4,1.5-.2,2-.3.2-.6.3-.9.3M1010.7,1200.9c-.4,0-.7-.1-1-.4-.5-.5-.5-1.4,0-2,1.4-1.3,2.7-2.6,4.2-3.9.6-.5,1.5-.5,2,.1.5.6.5,1.5-.1,2-1.4,1.2-2.7,2.5-4.1,3.8-.3.3-.6.4-1,.4M1195,1197.3c-.3,0-.7-.1-.9-.4-1.4-1.2-2.8-2.5-4.2-3.6-.6-.5-.7-1.4-.2-2,.5-.6,1.4-.7,2-.2,1.5,1.2,2.9,2.4,4.3,3.7.6.5.6,1.4.1,2-.3.3-.7.5-1,.5M1025.7,1188.2c-.4,0-.9-.2-1.1-.6-.4-.6-.3-1.5.3-1.9,1.5-1.1,3.1-2.2,4.7-3.2.6-.4,1.5-.3,1.9.4.4.6.2,1.5-.4,1.9-1.6,1-3.1,2.1-4.6,3.2-.2.2-.5.3-.8.3M1179.4,1185.3c-.3,0-.5,0-.8-.2-1.5-1-3.1-2-4.7-3-.7-.4-.9-1.3-.5-1.9.4-.7,1.3-.9,1.9-.5,1.6,1,3.2,2,4.8,3.1.7.4.8,1.3.4,1.9-.3.4-.7.6-1.2.6M1042.5,1177.9c-.5,0-1-.3-1.2-.7-.4-.7,0-1.5.6-1.9,1.7-.9,3.4-1.7,5.1-2.5.7-.3,1.5,0,1.9.7.3.7,0,1.5-.7,1.9-1.7.8-3.4,1.6-5,2.5-.2.1-.4.2-.7.2M1162.3,1175.6c-.2,0-.4,0-.6-.1-1.7-.8-3.4-1.5-5.1-2.3-.7-.3-1-1.1-.7-1.8.3-.7,1.1-1,1.8-.7,1.7.7,3.5,1.5,5.2,2.3.7.3,1,1.2.7,1.9-.2.5-.7.8-1.3.8M1060.5,1170.1c-.6,0-1.1-.4-1.3-.9-.3-.7.1-1.5.9-1.8,1.8-.6,3.6-1.2,5.4-1.7.7-.2,1.5.2,1.7.9.2.7-.2,1.5-.9,1.7-1.8.5-3.6,1.1-5.3,1.7-.1,0-.3,0-.5,0M1144,1168.5c-.1,0-.3,0-.4,0-1.8-.5-3.6-1-5.4-1.5-.7-.2-1.2-1-1-1.7.2-.7,1-1.2,1.7-1,1.8.5,3.7,1,5.5,1.5.7.2,1.2,1,.9,1.8-.2.6-.7,1-1.3,1M1079.5,1165c-.7,0-1.2-.5-1.4-1.1-.1-.8.4-1.5,1.1-1.6,1.9-.4,3.7-.7,5.6-.9.7,0,1.5.4,1.6,1.2.1.8-.4,1.5-1.2,1.6-1.8.3-3.7.6-5.5.9,0,0-.2,0-.3,0M1124.8,1164.2c0,0-.1,0-.2,0-1.8-.3-3.7-.5-5.5-.7-.8,0-1.3-.8-1.2-1.5,0-.8.8-1.3,1.5-1.2,1.9.2,3.8.4,5.6.7.8.1,1.3.8,1.2,1.6-.1.7-.7,1.2-1.4,1.2M1099.1,1162.8c-.7,0-1.4-.6-1.4-1.3,0-.8.6-1.4,1.3-1.5,1.9,0,3.8-.1,5.7-.1h.5c.8,0,1.4.6,1.4,1.4s-.6,1.4-1.4,1.4h-.5c-1.9,0-3.7,0-5.6.1h0Z"/>
  <path class="st3" d="M1100.3,1376.5s0,0,0,0c-1.9,0-3.9-.3-5.8-.5-.8-.1-1.3-.8-1.2-1.6,0-.8.8-1.3,1.6-1.2,1.8.2,3.7.4,5.6.5.8,0,1.4.7,1.3,1.5,0,.7-.7,1.3-1.4,1.3M1114.5,1376c-.7,0-1.3-.5-1.4-1.2,0-.8.4-1.5,1.2-1.6,1.9-.2,3.7-.5,5.5-.9.8-.2,1.5.3,1.6,1.1.1.8-.3,1.5-1.1,1.6-1.9.4-3.8.7-5.7.9,0,0-.1,0-.2,0M1080.7,1373c-.1,0-.3,0-.4,0-1.9-.6-3.7-1.2-5.4-1.9-.7-.3-1.1-1.1-.8-1.8.3-.7,1.1-1.1,1.8-.8,1.7.7,3.5,1.3,5.3,1.9.7.2,1.1,1,.9,1.8-.2.6-.7,1-1.3,1M1133.7,1371.2c-.6,0-1.1-.3-1.3-.9-.3-.7,0-1.5.8-1.8,1.7-.7,3.5-1.4,5.1-2.2.7-.3,1.5,0,1.9.7.3.7,0,1.5-.7,1.9-1.7.8-3.5,1.6-5.3,2.3-.2,0-.3.1-.5.1M1062.7,1364.6c-.3,0-.5,0-.7-.2-1.6-1-3.3-2.1-4.8-3.2-.6-.5-.8-1.3-.3-2,.5-.6,1.3-.8,2-.3,1.5,1.1,3,2.1,4.6,3.1.7.4.9,1.3.4,1.9-.3.4-.7.7-1.2.7M1151.1,1361.6c-.4,0-.9-.2-1.1-.6-.5-.6-.3-1.5.3-1.9,1.5-1.1,3-2.2,4.4-3.4.6-.5,1.5-.4,2,.2.5.6.4,1.5-.2,2-1.5,1.2-3,2.4-4.6,3.6-.2.2-.5.3-.8.3M1047.3,1352.1c-.4,0-.7-.2-1-.4-1.3-1.4-2.6-2.8-3.8-4.3-.5-.6-.4-1.5.2-2,.6-.5,1.5-.4,2,.2,1.2,1.4,2.4,2.9,3.7,4.2.5.6.5,1.4,0,2-.3.3-.6.4-1,.4M1165.6,1348.1c-.3,0-.6-.1-.9-.3-.6-.5-.7-1.4-.2-2,1.2-1.4,2.3-2.9,3.4-4.4.4-.6,1.3-.8,2-.3s.8,1.3.3,2c-1.1,1.6-2.3,3.1-3.5,4.6-.3.3-.7.5-1.1.5M1035.6,1336.1c-.5,0-1-.3-1.2-.7-.9-1.7-1.8-3.4-2.6-5.1-.3-.7,0-1.5.7-1.9.7-.3,1.5,0,1.9.7.8,1.7,1.6,3.4,2.6,5,.4.7.1,1.5-.5,1.9-.2.1-.4.2-.7.2M1176.3,1331.3c-.2,0-.4,0-.6-.1-.7-.3-1-1.2-.7-1.9.8-1.7,1.5-3.4,2.2-5.1.3-.7,1.1-1.1,1.8-.8.7.3,1.1,1.1.8,1.8-.7,1.8-1.5,3.6-2.3,5.3-.2.5-.7.8-1.3.8M1028.1,1317.7c-.6,0-1.2-.4-1.4-1-.5-1.9-.9-3.7-1.3-5.6-.1-.8.4-1.5,1.1-1.6.7-.1,1.5.4,1.6,1.1.3,1.8.8,3.7,1.2,5.4.2.7-.2,1.5-1,1.7-.1,0-.2,0-.4,0M1182.5,1312.5c0,0-.2,0-.3,0-.8-.1-1.3-.9-1.1-1.6.4-1.8.6-3.7.9-5.5,0-.8.8-1.3,1.6-1.2.8,0,1.3.8,1.2,1.6-.2,1.9-.5,3.8-.9,5.7-.1.7-.7,1.1-1.4,1.1M1025.5,1298c-.8,0-1.4-.6-1.4-1.4v-.6c0-1.7,0-3.4.2-5.1,0-.8.7-1.4,1.5-1.3.8,0,1.3.7,1.3,1.5-.1,1.6-.2,3.3-.2,5v.6c0,.8-.6,1.4-1.4,1.4h0ZM1183.8,1292.7c-.7,0-1.3-.6-1.4-1.3-.1-1.8-.3-3.7-.5-5.6,0-.8.4-1.5,1.2-1.6.8,0,1.5.4,1.6,1.2.2,1.9.4,3.9.5,5.8,0,.8-.5,1.4-1.3,1.5h0M1027.8,1278.3c-.1,0-.2,0-.3,0-.7-.2-1.2-.9-1-1.7.4-1.9,1-3.7,1.6-5.6.2-.7,1-1.1,1.8-.9.7.2,1.1,1,.9,1.8-.6,1.8-1.1,3.6-1.5,5.4-.2.6-.7,1.1-1.4,1.1M1180.2,1273.2c-.6,0-1.1-.4-1.3-1-.6-1.8-1.2-3.5-1.9-5.3-.3-.7,0-1.5.8-1.8.7-.3,1.5,0,1.8.8.7,1.8,1.4,3.6,2,5.4.2.7-.2,1.5-.9,1.8-.1,0-.3,0-.4,0M1034.9,1259.8c-.2,0-.5,0-.7-.2-.7-.4-.9-1.2-.6-1.9.9-1.7,1.9-3.4,2.9-5,.4-.7,1.3-.8,1.9-.4.6.4.8,1.3.4,1.9-1,1.6-1.9,3.2-2.8,4.8-.3.5-.7.7-1.2.7M1171.8,1255.2c-.5,0-.9-.2-1.2-.7-1-1.6-2.1-3.1-3.2-4.6-.4-.6-.3-1.5.3-2,.6-.5,1.5-.3,2,.3,1.1,1.5,2.2,3.1,3.3,4.8.4.7.2,1.5-.4,1.9-.2.1-.5.2-.8.2M1046.5,1243.6c-.3,0-.7-.1-1-.4-.6-.5-.6-1.4,0-2,1.3-1.4,2.7-2.8,4.1-4.1.6-.5,1.5-.5,2,0,.5.6.5,1.4,0,2-1.3,1.3-2.7,2.6-3.9,4-.3.3-.7.5-1,.5M1159.1,1239.8c-.3,0-.7-.1-1-.4-1.3-1.3-2.8-2.5-4.2-3.7-.6-.5-.7-1.4-.2-2,.5-.6,1.4-.7,2-.2,1.5,1.2,2.9,2.5,4.3,3.8.6.5.6,1.4,0,2-.3.3-.7.4-1,.4M1061.7,1230.9c-.5,0-.9-.2-1.2-.6-.4-.7-.2-1.5.4-1.9,1.6-1,3.3-2,5-3,.7-.4,1.5-.1,1.9.5.4.7.1,1.5-.6,1.9-1.6.9-3.2,1.9-4.8,2.9-.2.1-.5.2-.8.2M1143.1,1228.1c-.2,0-.5,0-.7-.2-1.6-.9-3.3-1.8-5-2.5-.7-.3-1-1.2-.7-1.9.3-.7,1.2-1,1.9-.7,1.7.8,3.5,1.7,5.1,2.6.7.4.9,1.2.5,1.9-.2.5-.7.7-1.2.7M1079.6,1222.2c-.6,0-1.1-.4-1.3-1-.2-.7.1-1.5.9-1.8,1.8-.6,3.7-1.2,5.6-1.6.8-.2,1.5.3,1.7,1s-.3,1.5-1,1.7c-1.8.5-3.6,1-5.4,1.6-.1,0-.3,0-.4,0M1124.7,1220.7c-.1,0-.2,0-.4,0-1.8-.5-3.6-.9-5.4-1.2-.8-.1-1.3-.9-1.1-1.6.1-.8.8-1.3,1.6-1.1,1.9.4,3.8.8,5.6,1.3.7.2,1.2,1,1,1.7-.2.6-.7,1-1.4,1M1099,1218.4c-.7,0-1.3-.6-1.4-1.3,0-.8.5-1.4,1.3-1.5,1.9-.1,3.9-.2,5.8-.2h.3c.8,0,1.4.6,1.4,1.4s-.6,1.4-1.4,1.4h-.3c-1.8,0-3.7,0-5.6.2h0"/>
</svg>