<?xml version="1.0" encoding="UTF-8"?>
<svg id="Layer_1" xmlns="http://www.w3.org/2000/svg" xmlns:xlink="http://www.w3.org/1999/xlink" version="1.1" viewBox="750 950 2800 700">
  <!-- Cropped VantaTrack Logo - Focused on logo and text only -->
  <defs>
    <style>
      .st0 {
        fill: #2a0b45;
      }

      .st1 {
        fill: url(#linear-gradient);
      }

      .st2 {
        fill: #002aac;
      }

      .st3 {
        fill: #00ff9d;
      }

      .st4 {
        fill: #00a2ff;
      }
    </style>
    <linearGradient id="linear-gradient" x1="806.5" y1="1296" x2="1402.9" y2="1296" gradientUnits="userSpaceOnUse">
      <stop offset="0" stop-color="#002aac"/>
      <stop offset=".3" stop-color="#00a2ff"/>
      <stop offset=".6" stop-color="#00ff9d"/>
      <stop offset=".8" stop-color="#ffb400"/>
      <stop offset="1" stop-color="#ff0040"/>
    </linearGradient>
  </defs>
  <g>
    <polygon class="st0" points="1657.5 1429.9 1566.4 1158.6 1624.5 1158.6 1690.9 1367.2 1756.7 1158.6 1815.2 1158.6 1723.7 1429.9 1657.5 1429.9"/>
    <path class="st0" d="M1947,1236.1h50v193.8h-50v-22.9c-15,18.9-36,28.3-63.2,28.3s-48-9.9-66.5-29.6c-18.5-19.8-27.7-44-27.7-72.7s9.2-52.9,27.7-72.7c18.5-19.8,40.6-29.6,66.5-29.6s48.2,9.4,63.2,28.3v-22.9ZM1854.8,1372.3c10.1,10.2,22.9,15.3,38.4,15.3s28.3-5.1,38.6-15.3c10.2-10.2,15.3-23.3,15.3-39.3s-5.1-29.1-15.3-39.3c-10.2-10.2-23.1-15.3-38.6-15.3s-28.3,5.1-38.4,15.3c-10.1,10.2-15.1,23.3-15.1,39.3s5,29.1,15.1,39.3"/>
    <path class="st0" d="M2134.3,1230.7c21.2,0,38.7,7.1,52.5,21.3,13.8,14.2,20.7,33.9,20.7,58.9v119h-50v-112.8c0-12.9-3.5-22.8-10.5-29.6-7-6.9-16.3-10.3-27.9-10.3s-23.2,4-31,12c-7.8,8-11.6,20-11.6,36v104.6h-50v-193.8h50v21.7c12.2-18.1,31.4-27.1,57.7-27.1"/>
    <path class="st0" d="M2350.5,1284.2h-43.8v80.6c0,6.7,1.7,11.6,5,14.7,3.4,3.1,8.3,4.8,14.7,5.2,6.5.4,14.5.3,24-.2v45.4c-34.4,3.9-58.6.6-72.7-9.7-14.1-10.3-21.1-28.8-21.1-55.4v-80.6h-33.7v-48.1h33.7v-39.1l50-15.1v54.3h43.8v48.1Z"/>
    <path class="st0" d="M2521.9,1236.1h50v193.8h-50v-22.9c-15,18.9-36,28.3-63.2,28.3s-48-9.9-66.5-29.6c-18.5-19.8-27.7-44-27.7-72.7s9.2-52.9,27.7-72.7c18.5-19.8,40.6-29.6,66.5-29.6s48.2,9.4,63.2,28.3v-22.9ZM2429.7,1372.3c10.1,10.2,22.9,15.3,38.4,15.3s28.3-5.1,38.6-15.3c10.2-10.2,15.3-23.3,15.3-39.3s-5.1-29.1-15.3-39.3c-10.2-10.2-23.1-15.3-38.6-15.3s-28.3,5.1-38.4,15.3c-10.1,10.2-15.1,23.3-15.1,39.3s5,29.1,15.1,39.3"/>
  </g>
  <g>
    <polygon class="st0" points="2772.7 1158.6 2772.7 1209.8 2699.4 1209.8 2699.4 1429.9 2646 1429.9 2646 1209.8 2573.1 1209.8 2573.1 1158.6 2772.7 1158.6"/>
    <path class="st0" d="M2820.5,1269.5c4.7-12.4,12.3-21.7,23.1-27.9,10.7-6.2,22.7-9.3,35.8-9.3v55.8c-15.2-1.8-28.9,1.3-40.9,9.3-12,8-18,21.3-18,39.9v92.6h-50v-193.8h50v33.3Z"/>
    <path class="st0" d="M3048.4,1236.1h50v193.8h-50v-22.9c-15,18.9-36,28.3-63.2,28.3s-48-9.9-66.5-29.6c-18.5-19.8-27.7-44-27.7-72.7s9.2-52.9,27.7-72.7c18.5-19.8,40.6-29.6,66.5-29.6s48.2,9.4,63.2,28.3v-22.9ZM2956.2,1372.3c10.1,10.2,22.9,15.3,38.4,15.3s28.3-5.1,38.6-15.3c10.2-10.2,15.3-23.3,15.3-39.3s-5.1-29.1-15.3-39.3c-10.2-10.2-23.1-15.3-38.6-15.3s-28.3,5.1-38.4,15.3c-10.1,10.2-15.1,23.3-15.1,39.3s5,29.1,15.1,39.3"/>
    <path class="st0" d="M3225.4,1435.3c-29.2,0-53.6-9.8-73-29.5-19.5-19.6-29.3-43.9-29.3-72.9s9.7-53.2,29.3-72.9c19.5-19.6,43.8-29.5,73-29.5s36,4.5,51.5,13.6c15.5,9,27.2,21.2,35.3,36.4l-43,25.2c-3.9-8-9.8-14.3-17.6-19-7.9-4.6-16.7-7-26.6-7-15,0-27.4,5-37.2,14.9-9.8,9.9-14.7,22.7-14.7,38.2s4.9,27.8,14.7,37.8c9.8,9.9,22.2,14.9,37.2,14.9s19.1-2.3,26.9-6.8c7.9-4.5,13.8-10.8,17.6-18.8l43.4,24.8c-8.5,15.2-20.5,27.5-36,36.6-15.5,9.2-32.7,13.8-51.5,13.8"/>
    <polygon class="st0" points="3512.7 1429.9 3454.6 1429.9 3384.1 1341.9 3384.1 1429.9 3334.1 1429.9 3334.1 1158.6 3384.1 1158.6 3384.1 1321.7 3450.7 1236.1 3510.4 1236.1 3432.5 1331.9 3512.7 1429.9"/>
  </g>
  <path class="st1" d="M842.6,1296c0-144.8,117.4-262.1,262.1-262.1s262.1,117.4,262.1,262.1-117.4,262.1-262.1,262.1-262.1-117.4-262.1-262.1M806.5,1296c0,164.7,133.5,298.2,298.2,298.2s298.2-133.5,298.2-298.2-133.5-298.2-298.2-298.2-298.2,133.5-298.2,298.2"/>
</svg>